<mxfile host="app.diagrams.net" agent="Mozilla/5.0 (X11; Linux x86_64; rv:135.0) Gecko/20100101 Firefox/135.0" version="26.0.16">
  <diagram name="Página-1" id="M-YEOLk5TxD8YuwFW9EH">
    <mxGraphModel dx="1434" dy="743" grid="1" gridSize="10" guides="1" tooltips="1" connect="1" arrows="1" fold="1" page="1" pageScale="1" pageWidth="827" pageHeight="1169" math="0" shadow="0">
      <root>
        <mxCell id="0" />
        <mxCell id="1" parent="0" />
        <mxCell id="uRhyvKkVNlkrIAhUe2Sd-1" value="CONTEXTO ESCALANTE" style="rounded=1;whiteSpace=wrap;html=1;labelBackgroundColor=none;fillColor=#dae8fc;strokeColor=#6c8ebf;" parent="1" vertex="1">
          <mxGeometry x="322" y="40" width="200" height="100" as="geometry" />
        </mxCell>
        <mxCell id="uRhyvKkVNlkrIAhUe2Sd-2" value="CONTEXTO COMANDO" style="rounded=1;whiteSpace=wrap;html=1;labelBackgroundColor=none;fillColor=#dae8fc;strokeColor=#6c8ebf;" parent="1" vertex="1">
          <mxGeometry x="522" y="140" width="200" height="100" as="geometry" />
        </mxCell>
        <mxCell id="uRhyvKkVNlkrIAhUe2Sd-3" value="CONTEXTO SEGURANÇA" style="rounded=1;whiteSpace=wrap;html=1;labelBackgroundColor=none;fillColor=#dae8fc;strokeColor=#6c8ebf;" parent="1" vertex="1">
          <mxGeometry x="319" y="435" width="200" height="100" as="geometry" />
        </mxCell>
        <mxCell id="uRhyvKkVNlkrIAhUe2Sd-4" value="CONTEXTO AJUDANCIA" style="rounded=1;whiteSpace=wrap;html=1;labelBackgroundColor=none;fillColor=#dae8fc;strokeColor=#6c8ebf;" parent="1" vertex="1">
          <mxGeometry x="122" y="140" width="200" height="100" as="geometry" />
        </mxCell>
        <mxCell id="uRhyvKkVNlkrIAhUe2Sd-9" value="CONTEXTO MILITARES" style="rounded=1;whiteSpace=wrap;html=1;labelBackgroundColor=none;fillColor=#dae8fc;strokeColor=#6c8ebf;" parent="1" vertex="1">
          <mxGeometry x="322" y="240" width="200" height="100" as="geometry" />
        </mxCell>
        <mxCell id="uRhyvKkVNlkrIAhUe2Sd-32" value="ACL" style="rounded=0;whiteSpace=wrap;html=1;direction=south;fillColor=#f8cecc;strokeColor=#b85450;" parent="1" vertex="1">
          <mxGeometry x="607" y="240" width="30" height="30" as="geometry" />
        </mxCell>
        <mxCell id="uRhyvKkVNlkrIAhUe2Sd-34" value="ACL" style="rounded=0;whiteSpace=wrap;html=1;direction=south;fillColor=#f8cecc;strokeColor=#b85450;" parent="1" vertex="1">
          <mxGeometry x="292" y="75" width="30" height="30" as="geometry" />
        </mxCell>
        <mxCell id="uRhyvKkVNlkrIAhUe2Sd-35" value="ACL" style="rounded=0;whiteSpace=wrap;html=1;direction=south;fillColor=#f8cecc;strokeColor=#b85450;" parent="1" vertex="1">
          <mxGeometry x="207" y="240" width="30" height="30" as="geometry" />
        </mxCell>
        <mxCell id="uRhyvKkVNlkrIAhUe2Sd-36" value="ACL" style="rounded=0;whiteSpace=wrap;html=1;direction=south;fillColor=#f8cecc;strokeColor=#b85450;" parent="1" vertex="1">
          <mxGeometry x="404" y="340" width="30" height="30" as="geometry" />
        </mxCell>
        <mxCell id="LMk_x3_U_rR5dVMkt9Ke-2" value="" style="ellipse;whiteSpace=wrap;html=1;fillColor=#bac8d3;strokeColor=#23445d;" parent="1" vertex="1">
          <mxGeometry x="307" y="120" width="234" height="140" as="geometry" />
        </mxCell>
        <mxCell id="LMk_x3_U_rR5dVMkt9Ke-4" value="&lt;font style=&quot;font-size: 14px;&quot;&gt;Núcleo Compartilhado&lt;/font&gt;" style="text;strokeColor=none;fillColor=none;align=left;verticalAlign=middle;spacingLeft=4;spacingRight=4;overflow=hidden;points=[[0,0.5],[1,0.5]];portConstraint=eastwest;rotatable=0;whiteSpace=wrap;html=1;" parent="1" vertex="1">
          <mxGeometry x="346" y="175" width="156" height="30" as="geometry" />
        </mxCell>
        <mxCell id="LMk_x3_U_rR5dVMkt9Ke-5" value="" style="endArrow=none;html=1;endSize=12;startArrow=none;startSize=14;startFill=0;edgeStyle=orthogonalEdgeStyle;rounded=0;entryX=0.5;entryY=0;entryDx=0;entryDy=0;exitX=1;exitY=0.5;exitDx=0;exitDy=0;" parent="1" source="uRhyvKkVNlkrIAhUe2Sd-36" target="uRhyvKkVNlkrIAhUe2Sd-3" edge="1">
          <mxGeometry relative="1" as="geometry">
            <mxPoint x="495" y="445" as="sourcePoint" />
            <mxPoint x="179" y="11" as="targetPoint" />
          </mxGeometry>
        </mxCell>
        <mxCell id="LMk_x3_U_rR5dVMkt9Ke-6" value="D" style="edgeLabel;resizable=0;html=1;align=left;verticalAlign=top;" parent="LMk_x3_U_rR5dVMkt9Ke-5" connectable="0" vertex="1">
          <mxGeometry x="-1" relative="1" as="geometry">
            <mxPoint x="2" y="-3" as="offset" />
          </mxGeometry>
        </mxCell>
        <mxCell id="LMk_x3_U_rR5dVMkt9Ke-7" value="U" style="edgeLabel;resizable=0;html=1;align=right;verticalAlign=top;" parent="LMk_x3_U_rR5dVMkt9Ke-5" connectable="0" vertex="1">
          <mxGeometry x="1" relative="1" as="geometry">
            <mxPoint x="13" y="-21" as="offset" />
          </mxGeometry>
        </mxCell>
        <mxCell id="LMk_x3_U_rR5dVMkt9Ke-8" value="" style="endArrow=none;html=1;endSize=12;startArrow=none;startSize=14;startFill=0;edgeStyle=orthogonalEdgeStyle;rounded=0;entryX=0.75;entryY=0;entryDx=0;entryDy=0;exitX=1;exitY=0.5;exitDx=0;exitDy=0;" parent="1" source="uRhyvKkVNlkrIAhUe2Sd-32" target="uRhyvKkVNlkrIAhUe2Sd-3" edge="1">
          <mxGeometry relative="1" as="geometry">
            <mxPoint x="429" y="380" as="sourcePoint" />
            <mxPoint x="429" y="445" as="targetPoint" />
          </mxGeometry>
        </mxCell>
        <mxCell id="LMk_x3_U_rR5dVMkt9Ke-9" value="D" style="edgeLabel;resizable=0;html=1;align=left;verticalAlign=top;" parent="LMk_x3_U_rR5dVMkt9Ke-8" connectable="0" vertex="1">
          <mxGeometry x="-1" relative="1" as="geometry">
            <mxPoint x="2" y="-3" as="offset" />
          </mxGeometry>
        </mxCell>
        <mxCell id="LMk_x3_U_rR5dVMkt9Ke-10" value="U" style="edgeLabel;resizable=0;html=1;align=right;verticalAlign=top;" parent="LMk_x3_U_rR5dVMkt9Ke-8" connectable="0" vertex="1">
          <mxGeometry x="1" relative="1" as="geometry">
            <mxPoint x="13" y="-21" as="offset" />
          </mxGeometry>
        </mxCell>
        <mxCell id="LMk_x3_U_rR5dVMkt9Ke-11" value="" style="endArrow=none;html=1;endSize=12;startArrow=none;startSize=14;startFill=0;edgeStyle=orthogonalEdgeStyle;rounded=0;entryX=0.25;entryY=0;entryDx=0;entryDy=0;exitX=1;exitY=0.5;exitDx=0;exitDy=0;" parent="1" source="uRhyvKkVNlkrIAhUe2Sd-35" target="uRhyvKkVNlkrIAhUe2Sd-3" edge="1">
          <mxGeometry relative="1" as="geometry">
            <mxPoint x="292" y="355" as="sourcePoint" />
            <mxPoint x="292" y="420" as="targetPoint" />
          </mxGeometry>
        </mxCell>
        <mxCell id="LMk_x3_U_rR5dVMkt9Ke-12" value="D" style="edgeLabel;resizable=0;html=1;align=left;verticalAlign=top;" parent="LMk_x3_U_rR5dVMkt9Ke-11" connectable="0" vertex="1">
          <mxGeometry x="-1" relative="1" as="geometry">
            <mxPoint x="2" y="-3" as="offset" />
          </mxGeometry>
        </mxCell>
        <mxCell id="LMk_x3_U_rR5dVMkt9Ke-13" value="U" style="edgeLabel;resizable=0;html=1;align=right;verticalAlign=top;" parent="LMk_x3_U_rR5dVMkt9Ke-11" connectable="0" vertex="1">
          <mxGeometry x="1" relative="1" as="geometry">
            <mxPoint x="13" y="-21" as="offset" />
          </mxGeometry>
        </mxCell>
        <mxCell id="LMk_x3_U_rR5dVMkt9Ke-14" value="" style="endArrow=none;html=1;endSize=12;startArrow=none;startSize=14;startFill=0;edgeStyle=orthogonalEdgeStyle;rounded=0;entryX=0;entryY=0.5;entryDx=0;entryDy=0;exitX=0.5;exitY=1;exitDx=0;exitDy=0;" parent="1" source="uRhyvKkVNlkrIAhUe2Sd-34" target="uRhyvKkVNlkrIAhUe2Sd-3" edge="1">
          <mxGeometry relative="1" as="geometry">
            <mxPoint x="232" y="280" as="sourcePoint" />
            <mxPoint x="379" y="445" as="targetPoint" />
            <Array as="points">
              <mxPoint x="105" y="90" />
              <mxPoint x="105" y="485" />
            </Array>
          </mxGeometry>
        </mxCell>
        <mxCell id="LMk_x3_U_rR5dVMkt9Ke-15" value="D" style="edgeLabel;resizable=0;html=1;align=left;verticalAlign=top;" parent="LMk_x3_U_rR5dVMkt9Ke-14" connectable="0" vertex="1">
          <mxGeometry x="-1" relative="1" as="geometry">
            <mxPoint x="-13" y="-3" as="offset" />
          </mxGeometry>
        </mxCell>
        <mxCell id="LMk_x3_U_rR5dVMkt9Ke-16" value="U" style="edgeLabel;resizable=0;html=1;align=right;verticalAlign=top;" parent="LMk_x3_U_rR5dVMkt9Ke-14" connectable="0" vertex="1">
          <mxGeometry x="1" relative="1" as="geometry">
            <mxPoint x="-4" y="-21" as="offset" />
          </mxGeometry>
        </mxCell>
      </root>
    </mxGraphModel>
  </diagram>
</mxfile>
